<svg version="1.1" xmlns="http://www.w3.org/2000/svg" xmlns:xlink="http://www.w3.org/1999/xlink" width="1560" height="804"><defs/><g><path fill="none" stroke="#02063B" paint-order="fill stroke markers" d=" M 20 408.05973646462996 L 21 408.36097991546603 L 22 408.6619685610353 L 23 408.96269034447016 L 24 409.26313321959293 L 25 409.5632851513984 L 26 409.86313411653566 L 27 410.1626681037901 L 28 410.4618751145641 L 29 410.7607431633582 L 30 411.05926027825075 L 31 411.3574145013776 L 32 411.65519388941135 L 33 411.9525865140394 L 34 412.2495804624421 L 35 412.54616383776965 L 36 412.84232475961886 L 37 413.13805136450895 L 38 413.43333180635693 L 39 413.7281542569519 L 40 414.02250690642893 L 41 414.31637796374235 L 42 414.60975565713767 L 43 414.9026282346236 L 44 415.19498396444226 L 45 415.4868111355397 L 46 415.7780980580345 L 47 416.06883306368655 L 48 416.3590045063639 L 49 416.6486007625096 L 50 416.93761023160744 L 51 417.22602133664634 L 52 417.5138225245842 L 53 417.80100226681077 L 54 418.0875490596093 L 55 418.37345142461754 L 56 418.65869790928735 L 57 418.9432770873437 L 58 419.22717755924197 L 59 419.5103879526251 L 60 419.79289692277877 L 61 420.0746931530859 L 62 420.3557653554802 L 63 420.636102270898 L 64 420.9156926697294 L 65 421.19452535226833 L 66 421.4725891491608 L 67 421.74987292185256 L 68 422.02636556303514 L 69 422.302055997091 L 70 422.5769331805369 L 71 422.85098610246655 L 72 423.1242037849915 L 73 423.396575283681 L 74 423.6680896880002 L 75 423.93873612174747 L 76 424.20850374349 L 77 424.4773817469979 L 78 424.74535936167734 L 79 425.01242585300173 L 80 425.278570522942 L 81 425.5437827103948 L 82 425.80805179160996 L 83 426.0713671806156 L 84 426.3337183296426 L 85 426.5950947295469 L 86 426.8554859102303 L 87 427.1148814410604 L 88 427.3732709312879 L 89 427.630644030463 L 90 427.88699042885 L 91 428.14229985784056 L 92 428.39656209036457 L 93 428.6497669413001 L 94 428.90190426788126 L 95 429.1529639701048 L 96 429.40293599113414 L 97 429.6518103177029 L 98 429.8995769805153 L 99 430.1462260546461 L 100 430.3917476599378 L 101 430.6361319613966 L 102 430.8793691695863 L 103 431.1214495410204 L 104 431.3623633785525 L 105 431.60210103176473 L 106 431.84065289735406 L 107 432.0780094195175 L 108 432.3141610903344 L 109 432.54909845014754 L 110 432.78281208794203 L 111 433.01529264172234 L 112 433.24653079888714 L 113 433.4765172966026 L 114 433.7052429221732 L 115 433.932698513411 L 116 434.15887495900233 L 117 434.3837631988731 L 118 434.6073542245515 L 119 434.82963907952904 L 120 435.05060885961916 L 121 435.270254713314 L 122 435.4885678421389 L 123 435.7055395010049 L 124 435.9211609985592 L 125 436.1354236975329 L 126 436.3483190150874 L 127 436.559838423158 L 128 436.7699734487956 L 129 436.978715674506 L 130 437.1860567385873 L 131 437.3919883354645 L 132 437.59650221602243 L 133 437.79959018793636 L 134 438.0012441159998 L 135 438.2014559224506 L 136 438.4002175872943 L 137 438.59752114862584 L 138 438.79335870294807 L 139 438.98772240548846 L 140 439.1806044705134 L 141 439.37199717164003 L 142 439.5618928421459 L 143 439.7502838752756 L 144 439.9371627245463 L 145 440.12252190404905 L 146 440.30635398874944 L 147 440.48865161478466 L 148 440.66940747975866 L 149 440.8486143430343 L 150 441.0262650260239 L 151 441.20235241247644 L 152 441.37686944876276 L 153 441.5498091441581 L 154 441.72116457112196 L 155 441.89092886557603 L 156 442.05909522717855 L 157 442.2256569195973 L 158 442.390607270779 L 159 442.5539396732169 L 160 442.71564758421516 L 161 442.8757245261512 L 162 443.03416408673496 L 163 443.190959919266 L 164 443.3461057428874 L 165 443.49959534283784 L 166 443.6514225707 L 167 443.80158134464716 L 168 443.95006564968696 L 169 444.09686953790185 L 170 444.24198712868804 L 171 444.3854126089903 L 172 444.5271402335354 L 173 444.6671643250621 L 174 444.8054792745485 L 175 444.9420795414365 L 176 445.07695965385426 L 177 445.2101142088351 L 178 445.3415378725337 L 179 445.47122538044033 L 180 445.59917153759113 L 181 445.7253712187767 L 182 445.8498193687469 L 183 445.972511002414 L 184 446.09344120505176 L 185 446.2126051324926 L 186 446.3299980113217 L 187 446.44561513906797 L 188 446.5594518843926 L 189 446.6715036872746 L 190 446.7817660591932 L 191 446.8902345833082 L 192 446.99690491463616 L 193 447.1017727802252 L 194 447.20483397932543 L 195 447.3060843835579 L 196 447.40551993707953 L 197 447.5031366567457 L 198 447.5989306322699 L 199 447.69289802638013 L 200 447.78503507497294 L 201 447.87533808726397 L 202 447.9638034459358 L 203 448.05042760728304 L 204 448.13520710135396 L 205 448.2181385320898 L 206 448.2992185774608 L 207 448.37844398959896 L 208 448.45581159492843 L 209 448.53131829429253 L 210 448.60496106307795 L 211 448.67673695133584 L 212 448.7466430839 L 213 448.8146766605021 L 214 448.88083495588376 L 215 448.94511531990577 L 216 449.0075151776544 L 217 449.0680320295441 L 218 449.12666345141827 L 219 449.18340709464564 L 220 449.2382606862151 L 221 449.29122202882604 L 222 449.342289000977 L 223 449.3914595570502 L 224 449.4387317273936 L 225 449.4841036183999 L 226 449.5275734125824 L 227 449.56913936864765 L 228 449.6087998215653 L 229 449.6465531826349 L 230 449.6823979395491 L 231 449.716332656455 L 232 449.7483559740109 L 233 449.7784666094412 L 234 449.80666335658765 L 235 449.8329450859576 L 236 449.85731074476945 L 237 449.8797593569946 L 238 449.9002900233967 L 239 449.91890192156745 L 240 449.93559430595985 L 241 449.95036650791803 L 242 449.9632179357036 L 243 449.97414807452 L 244 449.9831564865325 L 245 449.99024281088634 L 246 449.99540676372067 L 247 449.9986481381802 L 248 449.9999668044234 L 249 449.99936270962775 L 250 449.9968358779918 L 251 449.99238641073424 L 252 449.98601448608986 L 253 449.9777203593022 L 254 449.96750436261385 L 255 449.95536690525245 L 256 449.9413084734149 L 257 449.92532963024746 L 258 449.9074310158234 L 259 449.8876133471175 L 260 449.86587741797683 L 261 449.84222409908955 L 262 449.8166543379496 L 263 449.789169158819 L 264 449.7597696626866 L 265 449.72845702722424 L 266 449.6952325067393 L 267 449.66009743212464 L 268 449.62305321080527 L 269 449.58410132668195 L 270 449.5432433400717 L 271 449.50048088764527 L 272 449.45581568236173 L 273 449.40924951339974 L 274 449.360784246086 L 275 449.3104218218202 L 276 449.25816425799775 L 277 449.20401364792855 L 278 449.14797216075334 L 279 449.0900420413567 L 280 449.0302256102774 L 281 448.9685252636149 L 282 448.90494347293395 L 283 448.83948278516533 L 284 448.7721458225037 L 285 448.7029352823028 L 286 448.6318539369672 L 287 448.5589046338415 L 288 448.48409029509594 L 289 448.4074139176096 L 290 448.3288785728502 L 291 448.2484874067513 L 292 448.1662436395859 L 293 448.0821505658379 L 294 447.99621155406953 L 295 447.90843004678715 L 296 447.81880956030284 L 297 447.7273536845936 L 298 447.6340660831577 L 299 447.53895049286774 L 300 447.44201072382134 L 301 447.343250659188 L 302 447.2426742550539 L 303 447.1402855402633 L 304 447.0360886162572 L 305 446.930087656909 L 306 446.8222869083574 L 307 446.7126906888361 L 308 446.60130338850126 L 309 446.48812946925506 L 310 446.3731734645673 L 311 446.2564399792939 L 312 446.1379336894921 L 313 446.01765934223357 L 314 445.89562175541386 L 315 445.7718258175596 L 316 445.6462764876327 L 317 445.5189787948317 L 318 445.3899378383901 L 319 445.2591587873725 L 320 445.12664688046704 L 321 444.9924074257761 L 322 444.8564458006032 L 323 444.71876745123785 L 324 444.5793778927374 L 325 444.43828270870586 L 326 444.29548755107055 L 327 444.15099813985563 L 328 444.0048202629527 L 329 443.8569597758893 L 330 443.7074226015943 L 331 443.5562147301604 L 332 443.4033422186042 L 333 443.24881119062405 L 334 443.0926278363542 L 335 442.93479841211706 L 336 442.7753292401726 L 337 442.61422670846497 L 338 442.4514972703668 L 339 442.28714744442067 L 340 442.12118381407777 L 341 441.95361302743447 L 342 441.7844417969658 L 343 441.6136768992566 L 344 441.44132517473025 L 345 441.26739352737445 L 346 441.0918889244648 L 347 440.9148183962855 L 348 440.73618903584804 L 349 440.55600799860684 L 350 440.3742825021726 L 351 440.1910198260235 L 352 440.0062273112131 L 353 439.8199123600768 L 354 439.6320824359348 L 355 439.44274506279373 L 356 439.2519078250446 L 357 439.0595783671596 L 358 438.8657643933854 L 359 438.67047366743486 L 360 438.4737140121759 L 361 438.275493309318 L 362 438.0758194990969 L 363 437.87470057995597 L 364 437.67214460822635 L 365 437.4681596978038 L 366 437.26275401982394 L 367 437.0559358023349 L 368 436.8477133299676 L 369 436.63809494360396 L 370 436.4270890400429 L 371 436.2147040716638 L 372 436.000948546088 L 373 435.785831025838 L 374 435.5693601279945 L 375 435.3515445238512 L 376 435.13239293856736 L 377 434.91191415081846 L 378 434.6901169924444 L 379 434.4670103480958 L 380 434.2426031548781 L 381 434.01690440199343 L 382 433.7899231303808 L 383 433.56166843235377 L 384 433.332149451236 L 385 433.1013753809955 L 386 432.86935546587597 L 387 432.63609900002655 L 388 432.4016153271297 L 389 432.16591384002675 L 390 431.9290039803416 L 391 431.69089523810254 L 392 431.4515971513624 L 393 431.2111193058161 L 394 430.96947133441677 L 395 430.72666291698994 L 396 430.48270377984574 L 397 430.2376036953894 L 398 429.9913724817296 L 399 429.7440200022854 L 400 429.49555616539095 L 401 429.24599092389855 L 402 428.9953342747803 L 403 428.7435962587272 L 404 428.4907869597473 L 405 428.23691650476155 L 406 427.9819950631982 L 407 427.72603284658555 L 408 427.4690401081427 L 409 427.2110271423689 L 410 426.9520042846313 L 411 426.69198191075077 L 412 426.43097043658645 L 413 426.16898031761826 L 414 425.9060220485284 L 415 425.6421061627807 L 416 425.3772432321987 L 417 425.1114438665424 L 418 424.8447187130829 L 419 424.5770784561763 L 420 424.3085338168354 L 421 424.0390955523003 L 422 423.7687744556075 L 423 423.4975813551578 L 424 423.22552711428216 L 425 422.9526226308068 L 426 422.6788788366164 L 427 422.4043066972166 L 428 422.1289172112945 L 429 421.85272141027787 L 430 421.5757303578937 L 431 421.2979551497247 L 432 421.0194069127651 L 433 420.74009680497454 L 434 420.4600360148315 L 435 420.1792357608848 L 436 419.8977072913046 L 437 419.61546188343135 L 438 419.33251084332454 L 439 419.04886550530927 L 440 418.76453723152275 L 441 418.47953741145886 L 442 418.1938774615119 L 443 417.90756882451944 L 444 417.6206229693038 L 445 417.33305139021274 L 446 417.044865606659 L 447 416.75607716265887 L 448 416.46669762636964 L 449 416.1767385896263 L 450 415.8862116674774 L 451 415.59512849771943 L 452 415.30350074043076 L 453 415.0113400775047 L 454 414.7186582121815 L 455 414.42546686857935 L 456 414.1317777912249 L 457 413.83760274458297 L 458 413.542953512585 L 459 413.24784189815705 L 460 412.9522797227472 L 461 412.656278825852 L 462 412.35985106454183 L 463 412.0630083129864 L 464 411.765762461979 L 465 411.46812541845986 L 466 411.1701091050395 L 467 410.8717254595212 L 468 410.57298643442255 L 469 410.27390399649676 L 470 409.9744901262533 L 471 409.6747568174781 L 472 409.37471607675303 L 473 409.07437992297474 L 474 408.7737603868736 L 475 408.47286951053155 L 476 408.17171934689964 L 477 407.8703219593155 L 478 407.5686894210197 L 479 407.26683381467274 L 480 406.96476723187027 L 481 406.6625017726595 L 482 406.3600495450538 L 483 406.05742266454837 L 484 405.7546332536343 L 485 405.4516934413134 L 486 405.1486153626122 L 487 404.8454111580957 L 488 404.54209297338133 L 489 404.2386729586522 L 490 403.93516326817064 L 491 403.6315760597909 L 492 403.3279234944727 L 493 403.02421773579357 L 494 402.7204709494619 L 495 402.4166953028297 L 496 402.1129029644048 L 497 401.80910610336383 L 498 401.50531688906455 L 499 401.20154749055837 L 500 400.89781007610304 L 501 400.59411681267494 L 502 400.290479865482 L 503 399.98691139747615 L 504 399.68342356886643 L 505 399.38002853663136 L 506 399.07673845403247 L 507 398.7735654701272 L 508 398.4705217292824 L 509 398.1676193706875 L 510 397.8648705278688 L 511 397.56228732820296 L 512 397.25988189243145 L 513 396.957666334175 L 514 396.6556527594481 L 515 396.35385326617455 L 516 396.05227994370244 L 517 395.7509448723199 L 518 395.44986012277155 L 519 395.14903775577454 L 520 394.84848982153574 L 521 394.54822835926876 L 522 394.24826539671204 L 523 393.94861294964664 L 524 393.64928302141533 L 525 393.3502876024415 L 526 393.0516386697488 L 527 392.7533481864817 L 528 392.45542810142587 L 529 392.15789034852986 L 530 391.8607468464269 L 531 391.5640094979574 L 532 391.2676901896925 L 533 390.9718007914573 L 534 390.6763531558562 L 535 390.38135911779733 L 536 390.08683049401884 L 537 389.79277908261577 L 538 389.49921666256694 L 539 389.2061549932635 L 540 388.9136058140378 L 541 388.6215808436929 L 542 388.3300917800335 L 543 388.03915029939725 L 544 387.74876805618675 L 545 387.4589566824031 L 546 387.1697277871796 L 547 386.88109295631716 L 548 386.5930637518196 L 549 386.30565171143115 L 550 386.01886834817367 L 551 385.73272514988594 L 552 385.44723357876325 L 553 385.1624050708983 L 554 384.878251035823 L 555 384.5947828560518 L 556 384.31201188662516 L 557 384.0299494546552 L 558 383.74860685887177 L 559 383.4679953691696 L 560 383.1881262261575 L 561 382.9090106407074 L 562 382.6306597935056 L 563 382.35308483460483 L 564 382.07629688297783 L 565 381.8003070260716 L 566 381.52512631936344 L 567 381.2507657859181 L 568 380.97723641594615 L 569 380.70454916636385 L 570 380.4327149603542 L 571 380.16174468692924 L 572 379.8916492004941 L 573 379.62243932041207 L 574 379.3541258305712 L 575 379.0867194789524 L 576 378.82023097719866 L 577 378.5546710001864 L 578 378.29005018559747 L 579 378.0263791334932 L 580 377.7636684058898 L 581 377.5019285263352 L 582 377.2411699794875 L 583 376.9814032106951 L 584 376.72263862557816 L 585 376.46488658961175 L 586 376.2081574277109 L 587 375.95246142381654 L 588 375.69780882048406 L 589 375.4442098184727 L 590 375.1916745763369 L 591 374.9402132100196 L 592 374.68983579244696 L 593 374.44055235312464 L 594 374.19237287773643 L 595 373.94530730774386 L 596 373.6993655399882 L 597 373.4545574262939 L 598 373.2108927730741 L 599 372.96838134093764 L 600 372.72703284429826 L 601 372.48685695098516 L 602 372.2478632818561 L 603 372.01006141041177 L 604 371.7734608624123 L 605 371.538071115496 L 606 371.3039015987991 L 607 371.0709616925786 L 608 370.8392607278363 L 609 370.6088079859451 L 610 370.37961269827696 L 611 370.1516840458335 L 612 369.925031158878 L 613 369.6996631165696 L 614 369.47558894659977 L 615 369.25281762483064 L 616 369.03135807493544 L 617 368.811219168041 L 618 368.5924097223725 L 619 368.3749385029 L 620 368.1588142209877 L 621 367.9440455340447 L 622 367.7306410451782 L 623 367.51860930284903 L 624 367.30795880052926 L 625 367.09869797636173 L 626 366.89083521282225 L 627 366.68437883638376 L 628 366.47933711718264 L 629 366.27571826868774 L 630 366.0735304473711 L 631 365.87278175238146 L 632 365.67348022521946 L 633 365.4756338494159 L 634 365.2792505502117 L 635 365.0843381942406 L 636 364.8909045892139 L 637 364.69895748360784 L 638 364.508504566353 L 639 364.31955346652654 L 640 364.13211175304644 L 641 363.9461869343684 L 642 363.76178645818504 L 643 363.57891771112753 L 644 363.3975880184697 L 645 363.2178046438347 L 646 363.03957478890396 L 647 362.8629055931286 L 648 362.68780413344365 L 649 362.51427742398454 L 650 362.3423324158059 L 651 362.1719759966036 L 652 362.003214990438 L 653 361.83605615746166 L 654 361.67050619364767 L 655 361.50657173052196 L 656 361.3442593348973 L 657 361.1835755086105 L 658 361.0245266882619 L 659 360.86711924495745 L 660 360.71135948405356 L 661 360.55725364490456 L 662 360.4048079006127 L 663 360.2540283577809 L 664 360.1049210562681 L 665 359.95749196894747 L 666 359.81174700146687 L 667 359.66769199201264 L 668 359.5253327110753 L 669 359.3846748612188 L 670 359.24572407685196 L 671 359.10848592400265 L 672 358.972965900095 L 673 358.8391694337289 L 674 358.7071018844631 L 675 358.5767685425998 L 676 358.4481746289734 L 677 358.32132529474086 L 678 358.1962256211757 L 679 358.07288061946423 L 680 357.95129523050497 L 681 357.8314743247106 L 682 357.71342270181304 L 683 357.5971450906709 L 684 357.48264614908044 L 685 357.3699304635885 L 686 357.2590025493094 L 687 357.14986684974343 L 688 357.04252773659925 L 689 356.9369895096188 L 690 356.83325639640464 L 691 356.7313325522512 L 692 356.63122205997786 L 693 356.5329289297656 L 694 356.43645709899636 L 695 356.3418104320952 L 696 356.2489927203757 L 697 356.15800768188797 L 698 356.06885896126954 L 699 355.98155012959984 L 700 355.8960846842566 L 701 355.8124660487761 L 702 355.73069757271605 L 703 355.6507825315212 L 704 355.5727241263922 L 705 355.4965254841575 L 706 355.4221896571479 L 707 355.3497196230746 L 708 355.27911828490943 L 709 355.21038847076903 L 710 355.14353293380134 L 711 355.07855435207534 L 712 355.01545532847376 L 713 354.9542383905888 L 714 354.894905990621 L 715 354.83746050528094 L 716 354.78190423569396 L 717 354.7282394073081 L 718 354.67646816980476 L 719 354.626592597013 L 720 354.57861468682586 L 721 354.532536361121 L 722 354.4883594656831 L 723 354.4460857701305 L 724 354.40571696784366 L 725 354.367254675898 L 726 354.3307004349986 L 727 354.2960557094188 L 728 354.2633218869414 L 729 354.2325002788031 L 730 354.20359211964205 L 731 354.1765985674482 L 732 354.15152070351706 L 733 354.1283595324065 L 734 354.1071159818962 L 735 354.08779090295076 L 736 354.07038506968547 L 737 354.0548991793354 L 738 354.0413338522273 L 739 354.029689631755 L 740 354.0199669843574 L 741 354.0121662994999 L 742 354.00628788965884 L 743 354.00233199030896 L 744 354.0002987599138 L 745 354.0001882799197 L 746 354.0020005547521 L 747 354.00573551181583 L 748 354.0113930014976 L 749 354.0189727971722 L 750 354.0284745952116 L 751 354.03989801499716 L 752 354.05324259893456 L 753 354.06850781247255 L 754 354.085693044124 L 755 354.1047976054908 L 756 354.12582073129084 L 757 354.1487615793893 L 758 354.1736192308321 L 759 354.2003926898826 L 760 354.2290808840616 L 761 354.2596826641904 L 762 354.29219680443657 L 763 354.3266220023635 L 764 354.362956878982 L 765 354.40119997880606 L 766 354.4413497699107 L 767 354.48340464399377 L 768 354.52736291644004 L 769 354.57322282638887 L 770 354.6209825368046 L 771 354.67064013455035 L 772 354.72219363046435 L 773 354.77564095944 L 774 354.83097998050823 L 775 354.88820847692347 L 776 354.94732415625236 L 777 355.00832465046574 L 778 355.07120751603327 L 779 355.1359702340215 L 780 355.20261021019456 L 781 355.2711247751184 L 782 355.3415111842674 L 783 355.41376661813456 L 784 355.4878881823442 L 785 355.5638729077682 L 786 355.64171775064455 L 787 355.7214195926997 L 788 355.8029752412732 L 789 355.8863814294456 L 790 355.97163481616934 L 791 356.0587319864028 L 792 356.14766945124666 L 793 356.23844364808406 L 794 356.33105094072323 L 795 356.4254876195429 L 796 356.5217499016411 L 797 356.61983393098683 L 798 356.7197357785741 L 799 356.82145144257987 L 800 356.92497684852384 L 801 357.0303078494319 L 802 357.1374402260024 L 803 357.2463696867748 L 804 357.35709186830184 L 805 357.46960233532434 L 806 357.58389658094865 L 807 357.69997002682743 L 808 357.81781802334285 L 809 357.937435849793 L 810 358.05881871458087 L 811 358.1819617554064 L 812 358.3068600394612 L 813 358.433508563626 L 814 358.5619022546713 L 815 358.6920359694605 L 816 358.82390449515594 L 817 358.95750254942766 L 818 359.0928247806649 L 819 359.2298657681908 L 820 359.3686200224792 L 821 359.50908198537473 L 822 359.65124603031535 L 823 359.7951064625579 L 824 359.9406575194059 L 825 360.0878933704407 L 826 360.2368081177551 L 827 360.38739579618914 L 828 360.53965037356943 L 829 360.69356575095077 L 830 360.8491357628603 L 831 361.0063541775447 L 832 361.1652146972195 L 833 361.3257109583215 L 834 361.48783653176395 L 835 361.65158492319364 L 836 361.81694957325124 L 837 361.98392385783416 L 838 362.1525010883618 L 839 362.32267451204336 L 840 362.4944373121486 L 841 362.6677826082806 L 842 362.8427034566517 L 843 363.01919285036126 L 844 363.19724371967675 L 845 363.3768489323167 L 846 363.5580012937364 L 847 363.7406935474163 L 848 363.9249183751523 L 849 364.11066839734934 L 850 364.2979361733167 L 851 364.48671420156626 L 852 364.6769949201128 L 853 364.868770706777 L 854 365.06203387949097 L 855 365.25677669660547 L 856 365.4529913572006 L 857 365.6506700013979 L 858 365.84980471067524 L 859 366.05038750818426 L 860 366.2524103590696 L 861 366.45586517079096 L 862 366.66074379344724 L 863 366.8670380201029 L 864 367.0747395871166 L 865 367.28384017447274 L 866 367.4943314061142 L 867 367.7062048502781 L 868 367.91945201983344 L 869 368.1340643726212 L 870 368.3500333117965 L 871 368.56735018617286 L 872 368.78600629056893 L 873 369.005992866157 L 874 369.22730110081386 L 875 369.44992212947415 L 876 369.6738470344849 L 877 369.89906684596326 L 878 370.1255725421554 L 879 370.3533550497984 L 880 370.582405244483 L 881 370.81271395101993 L 882 371.0442719438067 L 883 371.27706994719756 L 884 371.5110986358751 L 885 371.7463486352235 L 886 371.9828105217044 L 887 372.220474823234 L 888 372.45933201956285 L 889 372.699372542657 L 890 372.9405867770814 L 891 373.18296506038496 L 892 373.42649768348764 L 893 373.67117489106926 L 894 373.9169868819606 L 895 374.16392380953573 L 896 374.4119757821064 L 897 374.6611328633186 L 898 374.91138507255016 L 899 375.1627223853108 L 900 375.41513473364387 L 901 375.6686120065292 L 902 375.9231440502884 L 903 376.17872066899156 L 904 376.4353316248657 L 905 376.6929666387048 L 906 376.9516153902815 L 907 377.2112675187608 L 908 377.4719126231147 L 909 377.73354026253895 L 910 377.9961399568717 L 911 378.2597011870125 L 912 378.52421339534453 L 913 378.78966598615693 L 914 379.0560483260694 L 915 379.3233497444582 L 916 379.59155953388364 L 917 379.8606669505188 L 918 380.1306612145801 L 919 380.4015315107589 L 920 380.67326698865503 L 921 380.94585676321117 L 922 381.2192899151489 L 923 381.4935554914063 L 924 381.7686425055765 L 925 382.0445399383479 L 926 382.3212367379454 L 927 382.59872182057336 L 928 382.87698407085935 L 929 383.1560123422995 L 930 383.4357954577052 L 931 383.7163222096504 L 932 383.9975813609209 L 933 384.27956164496436 L 934 384.56225176634166 L 935 384.84564040117925 L 936 385.129716197623 L 937 385.41446777629267 L 938 385.6998837307378 L 939 385.9859526278947 L 940 386.27266300854444 L 941 386.5600033877718 L 942 386.8479622554254 L 943 387.1365280765786 L 944 387.4256892919918 L 945 387.7154343185754 L 946 388.00575154985364 L 947 388.2966293564297 L 948 388.58805608645156 L 949 388.88002006607854 L 950 389.17250959994914 L 951 389.46551297164945 L 952 389.75901844418235 L 953 390.05301426043803 L 954 390.34748864366446 L 955 390.6424297979396 L 956 390.9378259086435 L 957 391.23366514293195 L 958 391.52993565021023 L 959 391.82662556260783 L 960 392.123722995454 L 961 392.4212160477536 L 962 392.71909280266397 L 963 393.0173413279725 L 964 393.31594967657395 L 965 393.61490588694977 L 966 393.9141979836468 L 967 394.2138139777571 L 968 394.5137418673982 L 969 394.8139696381939 L 970 395.11448526375534 L 971 395.4152767061631 L 972 395.71633191644923 L 973 396.0176388350796 L 974 396.3191853924376 L 975 396.620959509307 L 976 396.9229490973563 L 977 397.2251420596227 L 978 397.52752629099666 L 979 397.8300896787069 L 980 398.1328201028056 L 981 398.43570543665385 L 982 398.7387335474075 L 983 399.04189229650297 L 984 399.34516954014373 L 985 399.64855312978665 L 986 399.95203091262863 L 987 400.25559073209337 L 988 400.5592204283184 L 989 400.86290783864223 L 990 401.16664079809146 L 991 401.47040713986803 L 992 401.77419469583674 L 993 402.07799129701255 L 994 402.3817847740481 L 995 402.6855629577213 L 996 402.9893136794224 L 997 403.293024771642 L 998 403.59668406845805 L 999 403.90027940602323 L 1000 404.2037986230523 L 1001 404.5072295613093 L 1002 404.8105600660944 L 1003 405.113777986731 L 1004 405.41687117705226 L 1005 405.71982749588767 L 1006 406.02263480754965 L 1007 406.3252809823193 L 1008 406.62775389693263 L 1009 406.9300414350658 L 1010 407.23213148782094 L 1011 407.5340119542108 L 1012 407.8356707416438 L 1013 408.13709576640804 L 1014 408.43827495415576 L 1015 408.73919624038683 L 1016 409.03984757093195 L 1017 409.3402169024356 L 1018 409.6402922028385 L 1019 409.94006145185944 L 1020 410.239512641477 L 1021 410.53863377641034 L 1022 410.8374128745998 L 1023 411.13583796768694 L 1024 411.4338971014939 L 1025 411.7315783365022 L 1026 412.0288697483311 L 1027 412.3257594282151 L 1028 412.62223548348135 L 1029 412.91828603802554 L 1030 413.213899232788 L 1031 413.5090632262286 L 1032 413.803766194801 L 1033 414.0979963334267 L 1034 414.3917418559672 L 1035 414.68499099569686 L 1036 414.9777320057738 L 1037 415.2699531597105 L 1038 415.5616427518437 L 1039 415.8527890978031 L 1040 416.1433805349797 L 1041 416.43340542299256 L 1042 416.72285214415547 L 1043 417.01170910394217 L 1044 417.2999647314506 L 1045 417.58760747986685 L 1046 417.8746258269273 L 1047 418.16100827538037 L 1048 418.4467433534469 L 1049 418.73181961528 L 1050 419.01622564142326 L 1051 419.2999500392682 L 1052 419.5829814435108 L 1053 419.8653085166065 L 1054 420.14691994922475 L 1055 420.4278044607017 L 1056 420.7079507994921 L 1057 420.9873477436202 L 1058 421.2659841011291 L 1059 421.5438487105292 L 1060 421.8209304412452 L 1061 422.0972181940619 L 1062 422.37270090156915 L 1063 422.6473675286047 L 1064 422.92120707269663 L 1065 423.19420856450387 L 1066 423.46636106825565 L 1067 423.7376536821897 L 1068 424.0080755389887 L 1069 424.27761580621586 L 1070 424.5462636867485 L 1071 424.81400841921095 L 1072 425.0808392784054 L 1073 425.3467455757415 L 1074 425.6117166596647 L 1075 425.87574191608263 L 1076 426.13881076879056 L 1077 426.400912679895 L 1078 426.6620371502357 L 1079 426.92217371980627 L 1080 427.18131196817325 L 1081 427.43944151489353 L 1082 427.69655201993 L 1083 427.95263318406586 L 1084 428.20767474931733 L 1085 428.4616664993443 L 1086 428.71459825985966 L 1087 428.96645989903703 L 1088 429.21724132791627 L 1089 429.466932500808 L 1090 429.7155234156957 L 1091 429.96300411463653 L 1092 430.2093646841602 L 1093 430.454595255666 L 1094 430.6986860058183 L 1095 430.94162715693966 L 1096 431.18340897740313 L 1097 431.4240217820214 L 1098 431.66345593243517 L 1099 431.90170183749916 L 1100 432.13874995366626 L 1101 432.37459078536995 L 1102 432.6092148854043 L 1103 432.842612855303 L 1104 433.07477534571535 L 1105 433.3056930567808 L 1106 433.5353567385019 L 1107 433.7637571911143 L 1108 433.9908852654556 L 1109 434.2167318633317 L 1110 434.4412879378815 L 1111 434.6645444939389 L 1112 434.88649258839337 L 1113 435.1071233305482 L 1114 435.3264278824765 L 1115 435.5443974593753 L 1116 435.76102332991775 L 1117 435.97629681660214 L 1118 436.1902092961002 L 1119 436.4027521996022 L 1120 436.6139170131604 L 1121 436.82369527802985 L 1122 437.03207859100723 L 1123 437.23905860476776 L 1124 437.4446270281994 L 1125 437.6487756267348 L 1126 437.85149622268136 L 1127 438.05278069554896 L 1128 438.25262098237476 L 1129 438.45100907804664 L 1130 438.64793703562367 L 1131 438.8433969666545 L 1132 439.0373810414933 L 1133 439.2298814896133 L 1134 439.4208905999185 L 1135 439.6104007210519 L 1136 439.79840426170256 L 1137 439.98489369090925 L 1138 440.1698615383625 L 1139 440.35330039470375 L 1140 440.53520291182184 L 1141 440.71556180314775 L 1142 440.89436984394627 L 1143 441.0716198716055 L 1144 441.2473047859237 L 1145 441.42141754939377 L 1146 441.59395118748506 L 1147 441.7648987889229 L 1148 441.9342535059653 L 1149 442.10200855467724 L 1150 442.2681572152027 L 1151 442.4326928320334 L 1152 442.59560881427586 L 1153 442.756898635915 L 1154 442.9165558360759 L 1155 443.07457401928224 L 1156 443.230946855713 L 1157 443.38566808145555 L 1158 443.5387314987567 L 1159 443.6901309762711 L 1160 443.8398604493067 L 1161 443.98791392006774 L 1162 444.134285457895 L 1163 444.27896919950336 L 1164 444.42195934921676 L 1165 444.56325017920017 L 1166 444.7028360296892 L 1167 444.8407113092168 L 1168 444.9768704948371 L 1169 445.1113081323469 L 1170 445.24401883650376 L 1171 445.3749972912422 L 1172 445.50423824988627 L 1173 445.63173653535995 L 1174 445.75748704039427 L 1175 445.88148472773224 L 1176 446.0037246303304 L 1177 446.1242018515578 L 1178 446.24291156539215 L 1179 446.3598490166133 L 1180 446.47500952099347 L 1181 446.58838846548514 L 1182 446.69998130840565 L 1183 446.8097835796191 L 1184 446.91779088071564 L 1185 447.02399888518744 L 1186 447.12840333860225 L 1187 447.23100005877336 L 1188 447.3317849359277 L 1189 447.43075393287006 L 1190 447.5279030851449 L 1191 447.62322850119534 L 1192 447.7167263625188 L 1193 447.80839292382 L 1194 447.89822451316127 L 1195 447.9862175321092 L 1196 448.07236845587914 L 1197 448.1566738334762 L 1198 448.2391302878335 L 1199 448.31973451594763 L 1200 448.3984832890107 L 1201 448.4753734525398 L 1202 448.5504019265036 L 1203 448.62356570544506 L 1204 448.6948618586027 L 1205 448.76428753002716 L 1206 448.8318399386963 L 1207 448.89751637862616 L 1208 448.9613142189795 L 1209 449.02323090417116 L 1210 449.0832639539705 L 1211 449.14141096360066 L 1212 449.1976696038349 L 1213 449.25203762109004 L 1214 449.3045128375164 L 1215 449.3550931510856 L 1216 449.40377653567407 L 1217 449.4505610411448 L 1218 449.4954447934252 L 1219 449.538425994582 L 1220 449.57950292289377 L 1221 449.61867393291936 L 1222 449.65593745556407 L 1223 449.6912919981426 L 1224 449.7247361444385 L 1225 449.75626855476133 L 1226 449.78588796599996 L 1227 449.81359319167336 L 1228 449.83938312197813 L 1229 449.86325672383276 L 1230 449.8852130409194 L 1231 449.90525119372165 L 1232 449.9233703795603 L 1233 449.93956987262527 L 1234 449.95384902400434 L 1235 449.9662072617099 L 1236 449.9766440907011 L 1237 449.9851590929042 L 1238 449.9917519272291 L 1239 449.99642232958297 L 1240 449.99917011288096 L 1241 449.9999951670536 L 1242 449.9988974590513 L 1243 449.99587703284544 L 1244 449.990934009427 L 1245 449.9840685868013 L 1246 449.9752810399804 L 1247 449.96457172097183 L 1248 449.95194105876476 L 1249 449.93738955931246 L 1250 449.92091780551243 L 1251 449.9025264571827 L 1252 449.88221625103563 L 1253 449.8599880006483 L 1254 449.83584259643 L 1255 449.80978100558633 L 1256 449.7818042720809 L 1257 449.75191351659294 L 1258 449.72010993647297 L 1259 449.6863948056945 L 1260 449.65076947480287 L 1261 449.61323537086173 L 1262 449.5737939973952 L 1263 449.53244693432805 L 1264 449.48919583792235 L 1265 449.4440424407109 L 1266 449.3969885514283 L 1267 449.34803605493795 L 1268 449.2971869121569 L 1269 449.24444315997727 L 1270 449.18980691118435 L 1271 449.1332803543726 L 1272 449.0748657538571 L 1273 449.0145654495838 L 1274 448.952381857035 L 1275 448.8883174671331 L 1276 448.8223748461405 L 1277 448.75455663555704 L 1278 448.684865552014 L 1279 448.6133043871655 L 1280 448.53987600757625 L 1281 448.4645833546073 L 1282 448.3874294442978 L 1283 448.3084173672444 L 1284 448.2275502884771 L 1285 448.14483144733305 L 1286 448.0602641573262 L 1287 447.97385180601503 L 1288 447.8855978548665 L 1289 447.7955058391177 L 1290 447.7035793676339 L 1291 447.6098221227643 L 1292 447.5142378601944 L 1293 447.4168304087955 L 1294 447.3176036704713 L 1295 447.2165616200019 L 1296 447.1137083048842 L 1297 447.0090478451699 L 1298 446.9025844333005 L 1299 446.7943223339394 L 1300 446.6842658838011 L 1301 446.5724194914771 L 1302 446.4587876372599 L 1303 446.34337487296307 L 1304 446.22618582173914 L 1305 446.10722517789424 L 1306 445.98649770670033 L 1307 445.86400824420394 L 1308 445.73976169703286 L 1309 445.61376304219914 L 1310 445.4860173269003 L 1311 445.3565296683165 L 1312 445.22530525340613 L 1313 445.0923493386975 L 1314 444.9576672500789 L 1315 444.82126438258456 L 1316 444.68314620017924 L 1317 444.5433182355388 L 1318 444.40178608982876 L 1319 444.25855543248014 L 1320 444.11363200096196 L 1321 443.9670216005518 L 1322 443.81873010410294 L 1323 443.6687634518094 L 1324 443.5171276509677 L 1325 443.36382877573647 L 1326 443.2088729668929 L 1327 443.052266431587 L 1328 442.8940154430927 L 1329 442.73412634055694 L 1330 442.5726055287452 L 1331 442.40945947778545 L 1332 442.2446947229086 L 1333 442.078317864187 L 1334 441.91033556626985 L 1335 441.74075455811635 L 1336 441.5695816327261 L 1337 441.39682364686706 L 1338 441.2224875208007 L 1339 441.04658023800505 L 1340 440.86910884489464 L 1341 440.69008045053874 L 1342 440.50950222637596 L 1343 440.32738140592755 L 1344 440.1437252845071 L 1345 439.9585412189289 L 1346 439.7718366272127 L 1347 439.5836189882869 L 1348 439.39389584168896 L 1349 439.20267478726305 L 1350 439.00996348485614 L 1351 438.8157696540106 L 1352 438.62010107365546 L 1353 438.4229655817945 L 1354 438.22437107519244 L 1355 438.0243255090585 L 1356 437.8228368967279 L 1357 437.6199133093405 L 1358 437.41556287551816 L 1359 437.20979378103823 L 1360 437.00261426850653 L 1361 436.7940326370265 L 1362 436.58405724186724 L 1363 436.3726964941284 L 1364 436.1599588604036 L 1365 435.9458528624411 L 1366 435.7303870768025 L 1367 435.5135701345191 L 1368 435.2954107207463 L 1369 435.07591757441554 L 1370 434.85509948788444 L 1371 434.6329653065844 L 1372 434.4095239286662 L 1373 434.18478430464404 L 1374 433.9587554370363 L 1375 433.73144638000576 L 1376 433.5028662389959 L 1377 433.27302417036725 L 1378 433.04192938102966 L 1379 432.80959112807415 L 1380 432.57601871840166 L 1381 432.3412215083506 L 1382 432.1052089033217 L 1383 431.8679903574017 L 1384 431.629575372984 L 1385 431.38997350038875 L 1386 431.14919433747974 L 1387 430.9072475292802 L 1388 430.6641427675862 L 1389 430.419889790579 L 1390 430.17449838243397 L 1391 429.92797837292983 L 1392 429.6803396370538 L 1393 429.4315920946069 L 1394 429.18174570980597 L 1395 428.93081049088505 L 1396 428.678796489694 L 1397 428.425713801296 L 1398 428.1715725635635 L 1399 427.91638295677143 L 1400 427.66015520319036 L 1401 427.40289956667596 L 1402 427.1446263522586 L 1403 426.88534590573045 L 1404 426.62506861323067 L 1405 426.3638049008297 L 1406 426.1015652341118 L 1407 425.8383601177551 L 1408 425.57420009511173 L 1409 425.30909574778474 L 1410 425.04305769520465 L 1411 424.77609659420386 L 1412 424.50822313858987 L 1413 424.23944805871673 L 1414 423.9697821210557 L 1415 423.69923612776313 L 1416 423.42782091624866 L 1417 423.1555473587404 L 1418 422.88242636185004 L 1419 422.60846886613507 L 1420 422.33368584566165 L 1421 422.05808830756405 L 1422 421.7816872916043 L 1423 421.5044938697298 L 1424 421.22651914562954 L 1425 420.9477742542899 L 1426 420.6682703615481 L 1427 420.3880186636451 L 1428 420.107030386777 L 1429 419.8253167866458 L 1430 419.54288914800776 L 1431 419.2597587842221 L 1432 418.9759370367971 L 1433 418.6914352749367 L 1434 418.406264895084 L 1435 418.1204373204658 L 1436 417.83396400063407 L 1437 417.54685641100815 L 1438 417.2591260524143 L 1439 416.9707844506257 L 1440 416.6818431559001 L 1441 416.3923137425179 L 1442 416.1022078083177 L 1443 415.8115369742324 L 1444 415.5203128838232 L 1445 415.2285472028135 L 1446 414.9362516186214 L 1447 414.64343783989176 L 1448 414.35011759602696 L 1449 414.05630263671713 L 1450 413.7620047314696 L 1451 413.467235669137 L 1452 413.1720072574458 L 1453 412.8763313225225 L 1454 412.58021970842066 L 1455 412.28368427664566 L 1456 411.9867369056804 L 1457 411.68938949050863 L 1458 411.3916539421393 L 1459 411.0935421871287 L 1460 410.79506616710324 L 1461 410.49623783828076 L 1462 410.1970691709919 L 1463 409.89757214920013 L 1464 409.5977587700224 L 1465 409.29764104324767 L 1466 408.99723099085685 L 1467 408.6965406465403 L 1468 408.3955820552164 L 1469 408.09436727254865 L 1470 407.79290836446324 L 1471 407.49121740666504 L 1472 407.18930648415477 L 1473 406.8871876907438 L 1474 406.58487312857085 L 1475 406.2823749076163 L 1476 405.9797051452175 L 1477 405.6768759655835 L 1478 405.37389949930906 L 1479 405.07078788288896 L 1480 404.76755325823166 L 1481 404.46420777217327 L 1482 404.1607635759903 L 1483 403.85723282491386 L 1484 403.5536276776418 L 1485 403.2499602958525 L 1486 402.94624284371685 L 1487 402.6424874874119 L 1488 402.33870639463265 L 1489 402.0349117341053 L 1490 401.73111567509943 L 1491 401.4273303869407 L 1492 401.1235680385232 L 1493 400.81984079782234 L 1494 400.51616083140686 L 1495 400.21254030395215 L 1496 399.9089913777524 L 1497 399.60552621223377 L 1498 399.3021569634669 L 1499 398.9988957836808 L 1500 398.69575482077477 L 1501 398.3927462178332 L 1502 398.08988211263795 L 1503 397.78717463718283 L 1504 397.4846359171877 L 1505 397.182278071612 L 1506 396.8801132121703 L 1507 396.57815344284614 L 1508 396.2764108594081 L 1509 395.9748975489244 L 1510 395.6736255892795 L 1511 395.3726070486897 L 1512 395.0718539852201 L 1513 394.77137844630136 L 1514 394.47119246824724 L 1515 394.17130807577223 L 1516 393.87173728151043 L 1517 393.57249208553344 L 1518 393.2735844748707 L 1519 392.9750264230284 L 1520 392.67682988951054 L 1521 392.3790068193394 L 1522 392.0815691425774 L 1523 391.7845287738488 L 1524 391.48789761186305 L 1525 391.19168753893734 L 1526 390.8959104205215 L 1527 390.6005781047218 L 1528 390.30570242182733 L 1529 390.0112951838351 L 1530 389.71736818397756 L 1531 389.4239331962502 L 1532 389.1310019749393 L 1533 388.8385862541519 L 1534 388.546697747345 L 1535 388.255348146857 L 1536 387.9645491234388 L 1537 387.67431232578673 L 1538 387.38464938007553 L 1539 387.09557188949304" stroke-linecap="round" stroke-linejoin="round" stroke-miterlimit="10" stroke-width="14"/></g></svg>